PathFileType	4	(X/Y/Z)	C:/Users/opensim2020/Desktop/walking_exp_matlab/subject06_walking23_straight_03.trc																																																																																																																																					
DataRate	CameraRate	NumFrames	NumMarkers	Units	OrigDataRate	OrigDataStartFrame	OrigNumFrames																																																																																																																																	
100	100	4	45	mm	100	1740	94																																																																																																																																	
Frame#	Time	LFHD			RFHD			LBHD			RBHD			C7			T10			CLAV			STRN			RBAK			LSHO			LUPA			LELB			LFRM			LWRA			LWRB			LFIN			RSHO			RUPA			RELB			RFRM			RWRA			RWRB			RFIN			LASI			RASI			LPSI			RPSI			LTHI			LKNE			LTIB			LANK			LHEE			LTOE			RTHI			RKNE			RTIB			RANK			RHEE			RTOE			*39			*40			*41			*42			*43			*44		
		X1	Y1	Z1	X2	Y2	Z2	X3	Y3	Z3	X4	Y4	Z4	X5	Y5	Z5	X6	Y6	Z6	X7	Y7	Z7	X8	Y8	Z8	X9	Y9	Z9	X10	Y10	Z10	X11	Y11	Z11	X12	Y12	Z12	X13	Y13	Z13	X14	Y14	Z14	X15	Y15	Z15	X16	Y16	Z16	X17	Y17	Z17	X18	Y18	Z18	X19	Y19	Z19	X20	Y20	Z20	X21	Y21	Z21	X22	Y22	Z22	X23	Y23	Z23	X24	Y24	Z24	X25	Y25	Z25	X26	Y26	Z26	X27	Y27	Z27	X28	Y28	Z28	X29	Y29	Z29	X30	Y30	Z30	X31	Y31	Z31	X32	Y32	Z32	X33	Y33	Z33	X34	Y34	Z34	X35	Y35	Z35	X36	Y36	Z36	X37	Y37	Z37	X38	Y38	Z38	X39	Y39	Z39	X40	Y40	Z40	X41	Y41	Z41	X42	Y42	Z42	X43	Y43	Z43	X44	Y44	Z44	X45	Y45	Z45
																																																																																																																																								
1	0	-631.49133	1645.07581	1330.89795	-632.05078	1638.27991	1462.62561	-766.1167	1594.23389	1331.95959	-764.93799	1592.2124	1461.36792	-774.03394	1444.85803	1384.495	-851.21051	1125.81958	1399.9751	-672.73535	1355.84399	1397.00464	-655.70978	1177.08704	1393.07825	-872.11365	1289.29773	1457.08789	-704.98682	1390.87549	1231.05139	-691.43567	1191.1925	1154.62305	-679.90546	1079.09009	1136.71228	-607.82739	945.41479	1126.29175	-522.5498	858.47369	1186.51025	-567.95972	833.81067	1137.51013	-502.64014	772.42346	1150.35022	-728.55353	1394.87109	1552.64111	-832.51752	1224.99719	1637.38696	-863.82922	1106.31897	1652.59216	-875.74182	986.80603	1669.46521	-842.39435	839.50537	1635.99792	-895.89734	850.83386	1676.0426	-878.46906	767.40271	1672.16687	-695.25519	946.16925	1293.4198	-691.42218	955.11926	1512.79175	-849.72522	990.0531	1327.39331	-840.61615	987.62988	1494.13464	-800.31049	639.20911	1250.81445	-819.6441	477.35016	1284.09009	-914.21246	236.38286	1302.97766	-959.30859	73.35624	1358.77209	-1003.79236	65.74691	1404.125	-821.47729	39.32362	1360.45203	-658.70807	646.06787	1588.96692	-598.83008	536.26324	1567.2323	-630.87988	274.08795	1566.56702	-647.58911	89.16628	1523.64294	-684.39874	63.13855	1476.08643	-500.48395	56.78671	1536.03735	-731.00482	1687.57715	1388.40588	NaN	NaN	NaN	NaN	NaN	NaN	NaN	NaN	NaN	NaN	NaN	NaN	NaN	NaN	NaN
2	0.01	-619.6947	1643.16077	1331.14709	-620.62769	1636.3009	1462.85486	-754.258	1592.10742	1331.90198	-753.48663	1590.08386	1461.33972	-761.40967	1442.64526	1384.6283	-839.05524	1123.63269	1400.89661	-660.63855	1353.75085	1397.2019	-643.58447	1175.0647	1393.08557	-860.00317	1287.14429	1457.22217	-692.99628	1388.82385	1231.30054	-677.16907	1189.55896	1154.74146	-663.88318	1077.74231	1136.89307	-586.87445	946.70416	1127.49158	-498.4516	864.16656	1188.69666	-542.98254	836.88812	1140.30566	-474.92276	778.69391	1153.64758	-716.66559	1392.90356	1552.82056	-822.27747	1224.13257	1637.19702	-854.55573	1105.61511	1652.43494	-867.44714	986.14246	1669.25378	-835.12823	838.5719	1635.92249	-888.68445	850.35602	1675.73621	-871.95361	766.65271	1671.88184	-683.64923	944.23163	1293.23706	-678.24518	953.16223	1512.59851	-837.97351	987.745	1328.56543	-827.52228	985.08948	1495.28625	-791.25256	637.84399	1251.24548	-813.40405	476.12708	1284.52197	-911.62787	236.50117	1303.55505	-958.75214	74.03571	1359.53125	-1003.20209	66.90218	1405.03796	-821.33423	39.16206	1360.55957	-645.07477	643.59381	1588.86865	-585.09521	534.03186	1566.64771	-603.63055	270.34729	1566.01086	-608.1344	84.5994	1523.37134	-642.30865	56.37897	1475.19312	-459.5	59.23363	1534.71008	-719.45697	1685.49487	1388.43262	NaN	NaN	NaN	NaN	NaN	NaN	NaN	NaN	NaN	NaN	NaN	NaN	NaN	NaN	NaN
3	0.02	-607.80231	1641.03748	1331.50781	-609.0719	1634.15662	1463.25256	-742.30853	1589.85535	1331.84912	-741.86761	1587.79761	1461.31946	-749.4812	1440.38147	1384.85681	-826.70422	1121.2262	1401.88977	-648.5108	1351.54211	1397.46606	-631.33936	1172.84875	1393.13745	-847.69678	1284.72607	1457.34863	-681.02917	1386.75146	1231.60425	-662.89471	1187.84595	1155.00183	-647.992	1076.37646	1137.08716	-566.96509	948.026	1128.87451	-475.06058	869.97479	1191.01831	-518.32294	840.23694	1143.15234	-447.67587	785.25555	1156.8302	-704.64374	1390.7677	1553.02747	-811.81219	1223.07202	1637.12256	-845.05817	1104.71362	1652.40735	-858.83685	985.35205	1669.23755	-827.41827	837.53485	1636.04541	-881.0722	849.7019	1675.61938	-864.97247	765.89374	1671.875	-671.60449	942.22388	1293.51306	-664.98352	950.93127	1512.55298	-825.97833	985.33521	1329.8186	-814.25385	982.36438	1496.47839	-781.97986	636.42944	1251.90222	-807.07953	474.98239	1284.88623	-909.01227	236.73137	1304.0592	-958.55945	74.78455	1360.29456	-1002.58618	68.1629	1405.78479	-821.10791	39.02196	1360.60681	-631.90509	640.5094	1588.71875	-571.96454	530.97455	1566.16162	-577.15747	266.90756	1565.32678	-569.22607	81.14862	1523.0415	-601.56628	51.61787	1474.79858	-419.49014	63.08223	1534.26172	-707.72076	1683.26221	1388.53601	NaN	NaN	NaN	NaN	NaN	NaN	NaN	NaN	NaN	NaN	NaN	NaN	NaN	NaN	NaN
4	0.03	-595.76801	1638.77759	1331.91992	-597.37329	1631.86279	1463.6366	-730.17218	1587.50073	1331.85413	-730.19141	1585.41907	1461.31116	-737.76678	1438.03662	1385.02515	-814.21326	1118.69739	1402.99536	-636.14624	1349.20862	1397.74316	-618.84387	1170.56848	1393.38794	-835.36987	1282.15686	1457.58936	-668.91821	1384.66614	1231.77246	-648.73688	1186.04688	1155.26428	-632.3382	1074.98572	1137.41333	-546.89813	949.50372	1130.30005	-452.25513	875.9129	1193.39014	-494.1871	843.73621	1145.97913	-421.33856	792.08118	1160.02454	-692.53223	1388.46216	1553.30664	-801.16058	1221.93774	1637.13892	-835.20984	1103.71045	1652.59045	-849.76813	984.40601	1669.3512	-819.21216	836.28656	1636.39734	-873.06769	848.95538	1675.73425	-857.37915	765.04364	1672.17249	-659.95471	940.01758	1293.30322	-651.47394	948.45612	1512.69751	-813.69818	982.81104	1331.11121	-800.7384	979.5965	1497.69104	-772.76208	635.02423	1252.24915	-800.3385	473.81662	1285.15393	-906.00348	237.00049	1304.39844	-957.77808	75.55441	1360.88098	-1001.94281	69.59267	1406.37842	-820.89691	38.91573	1360.64966	-619.31982	636.74341	1588.28613	-559.39087	527.34619	1565.78833	-551.5318	263.81808	1564.42932	-531.01923	79.05629	1522.66089	-561.53552	48.81578	1474.41394	-380.39908	67.73075	1534.4668	-695.8847	1680.95032	1388.66541	NaN	NaN	NaN	NaN	NaN	NaN	NaN	NaN	NaN	NaN	NaN	NaN	NaN	NaN	NaN
